<?xml version="1.0" encoding="UTF-8"?>
<svg width="400px" height="400px" viewBox="0 0 400 400" version="1.1" xmlns="http://www.w3.org/2000/svg" xmlns:xlink="http://www.w3.org/1999/xlink">
    <!-- Generator: Sketch 45.1 (43504) - http://www.bohemiancoding.com/sketch -->
    <title>Caltrain</title>
    <desc>Created with Sketch.</desc>
    <defs></defs>
    <g id="Page-1" stroke="none" stroke-width="1" fill="none" fill-rule="evenodd">
        <g id="Caltrain">
            <g id="caltrain">
                <circle id="Oval" fill="#D1343E" cx="200" cy="200" r="200"></circle>
                <g id="bus" transform="translate(100.000000, 78.000000)" fill-rule="nonzero">
                    <path d="M100.54324,0 C77.9621428,0 46.7766125,6.45206261 33.8724873,11.8287815 C20.9683621,17.2055003 12.3656119,22.5822191 9.67753297,36.0237358 L0,110.541076 L0,213.220419 L16.666987,213.220419 L16.666987,229.322528 C16.666987,248.955826 45.3977941,248.955826 45.3977941,229.322528 L45.3977941,213.220419 L98.4396724,213.220419 L98.6079578,213.220419 L153.753404,213.220419 L153.753404,229.322528 C153.753404,248.955826 182.484211,248.955826 182.484211,229.322528 L182.484211,213.220419 L199.151198,213.220419 L199.151198,110.541076 L189.473665,36.0237358 C186.785586,22.5822191 178.182836,17.2055003 165.278711,11.8287815 C152.374585,6.45206261 121.189055,0 98.6079578,0" id="path2115" fill="#FFFFFF"></path>
                    <g id="g2117" transform="translate(16.828541, 18.511395)" fill="#D1343E">
                        <g id="g2119" transform="translate(0.000000, 134.628328)">
                            <g id="g2121" transform="translate(137.433085, 0.000000)">
                                <path d="M13.8454016,27.8921848 C21.4563898,27.8921848 27.6268548,21.7205978 27.6268548,14.1096097 C27.6268548,6.49862158 21.4563898,0.327034646 13.8454016,0.327034646 C6.23441348,0.327034646 0.0633875044,6.49862158 0.0633875044,14.1096097 C0.0633875044,21.7205978 6.23441348,27.8921848 13.8454016,27.8921848 Z" id="path2123"></path>
                            </g>
                            <g id="g2127">
                                <path d="M14.2156295,27.8921848 C6.60464139,27.8921848 0.434176357,21.7205978 0.434176357,14.1096097 C0.434176357,6.49862158 6.60464139,0.327034646 14.2156295,0.327034646 C21.8266177,0.327034646 27.9976436,6.49862158 27.9976436,14.1096097 C27.9976436,21.7205978 21.8266177,27.8921848 14.2156295,27.8921848 Z" id="path2129"></path>
                            </g>
                        </g>
                        <path d="M81.6812503,12.4043176 L41.7774139,12.4043176 C33.7120552,12.4043176 33.7120552,0.306840397 41.7774139,0.306840397 L81.7794168,0.306840397 L123.716702,0.306840397 C131.782061,0.306840397 131.782061,12.4043176 123.716702,12.4043176 L81.6812503,12.4043176 Z" id="path2133"></path>
                        <path d="M81.6812503,24.6184726 L20.034378,24.6184726 C11.5146487,24.6184726 9.28879367,28.9473343 8.25439935,35.513831 L0.721944408,89.5603732 C0.0196332978,94.7407591 1.5179344,99.8830003 8.67511288,99.8830003 L81.7794168,99.8830003 L156.819003,99.8830003 C163.976181,99.8830003 165.474483,94.7407591 164.772171,89.5603732 L157.239717,35.513831 C156.205322,28.9473343 153.979467,24.6184726 145.459738,24.6184726 L81.6812503,24.6184726 Z" id="path2135"></path>
                    </g>
                </g>
            </g>
        </g>
    </g>
</svg>